<?xml version="1.0" encoding="UTF-8"?>
<svg version="1.1" xmlns="http://www.w3.org/2000/svg" width="234" height="234">
<path d="M0 0 C77.22 0 154.44 0 234 0 C234 77.22 234 154.44 234 234 C156.78 234 79.56 234 0 234 C0 156.78 0 79.56 0 0 Z " fill="#1A88D9" transform="translate(0,0)"/>
<path d="M0 0 C3.7738203 1.01900316 6.14926461 2.75934718 8.92578125 5.44921875 C9.64056641 6.13306641 10.35535156 6.81691406 11.09179688 7.52148438 C12.19104492 8.59366211 12.19104492 8.59366211 13.3125 9.6875 C14.76558002 11.08863793 16.22000112 12.48838644 17.67578125 13.88671875 C18.75182617 14.92070801 18.75182617 14.92070801 19.84960938 15.97558594 C22.55693647 18.5243094 25.34648877 20.96604483 28.15795898 23.39868164 C30.77698543 25.67544698 33.32415431 28.02200384 35.875 30.375 C40.56485334 34.69317908 45.28821683 38.971495 50.0390625 43.22265625 C51.39086769 44.44789801 52.70992352 45.70992352 54 47 C56.65537372 47.56520003 59.29144713 47.73788198 62 48 C60.86913662 51.39259014 59.79067537 52.33037102 57.125 54.625 C56.07699219 55.54152344 56.07699219 55.54152344 55.0078125 56.4765625 C53 58 53 58 50 59 C50.020625 58.21496094 50.04125 57.42992187 50.0625 56.62109375 C50.04053371 50.42483262 50.04053371 50.42483262 47.50390625 44.9609375 C45.41067944 43.18358998 43.23278968 41.59801311 41 40 C39.39925625 38.60303603 37.81667659 37.18506563 36.25 35.75 C35.40953125 34.99203125 34.5690625 34.2340625 33.703125 33.453125 C30.79286064 30.81201804 27.89473819 28.15809346 25 25.5 C17.43221786 18.551675 9.83732075 11.64468498 2 5 C-2.09186347 6.65058261 -4.97872536 9.57175696 -8.125 12.5625 C-9.28989374 13.65414849 -10.45526274 14.74529003 -11.62109375 15.8359375 C-12.48130127 16.64369629 -12.48130127 16.64369629 -13.35888672 17.46777344 C-17.18394314 21.03904004 -21.10161578 24.50928995 -25 28 C-26.64636117 29.47857914 -28.29218774 30.95775375 -29.9375 32.4375 C-30.75089844 33.16710937 -31.56429687 33.89671875 -32.40234375 34.6484375 C-34.28211811 36.35012798 -36.14791185 38.06186592 -38.00390625 39.7890625 C-38.50349854 40.25127197 -39.00309082 40.71348145 -39.51782227 41.18969727 C-40.93176602 42.49930124 -42.34100586 43.81397848 -43.75 45.12890625 C-46 47 -46 47 -48 47 C-48 69.11 -48 91.22 -48 114 C-35.43549124 114.24926808 -35.43549124 114.24926808 -22.87060547 114.47802734 C-21.28611623 114.51325928 -19.70164216 114.54918339 -18.1171875 114.5859375 C-17.30580322 114.59729736 -16.49441895 114.60865723 -15.65844727 114.62036133 C-11.0331313 114.73765471 -7.39066081 115.40422247 -3 117 C-1.33034549 116.68197057 0.33678518 116.35015049 2 116 C3.34136367 116.65035814 4.67532254 117.3162955 6 118 C8.17323569 117.85318539 8.17323569 117.85318539 10 117 C10.33 116.34 10.66 115.68 11 115 C11.66 115.33 12.32 115.66 13 116 C12.67 116.66 12.34 117.32 12 118 C16.95 117.505 16.95 117.505 22 117 C22.66 118.32 23.32 119.64 24 121 C25.11375 120.319375 25.11375 120.319375 26.25 119.625 C27.1575 119.08875 28.065 118.5525 29 118 C29.91265625 117.45859375 29.91265625 117.45859375 30.84375 116.90625 C33.457495 115.80771949 35.42632824 115.80069285 38.25 115.875 C39.14203125 115.89304687 40.0340625 115.91109375 40.953125 115.9296875 C41.62859375 115.95289063 42.3040625 115.97609375 43 116 C42.67 117.32 42.34 118.64 42 120 C40.0625 120.5625 40.0625 120.5625 38 121 C37.67 120.67 37.34 120.34 37 120 C37.061875 121.093125 37.12375 122.18625 37.1875 123.3125 C37 127 37 127 35.625 128.9375 C34 130 34 130 32 130 C31.7525 130.61875 31.505 131.2375 31.25 131.875 C29.79371361 134.35068687 28.62187494 134.95125002 26 136 C26 136.66 26 137.32 26 138 C25.34 138 24.68 138 24 138 C23.773125 138.556875 23.54625 139.11375 23.3125 139.6875 C21.62622733 142.65855185 19.469646 144.64522125 17 147 C16.195625 147.825 15.39125 148.65 14.5625 149.5 C11.82874288 152.16708012 8.93322554 154.55564538 6 157 C3.40963603 159.52718436 0.90466365 162.10231218 -1.5625 164.75 C-5.50489683 168.38913553 -9.66466609 168.35307189 -14.859375 168.26953125 C-39.08881979 166.1901386 -61.08000866 153.80137168 -79 138 C-79.91458984 137.19369141 -79.91458984 137.19369141 -80.84765625 136.37109375 C-92.58350902 125.30110497 -102.13143316 110.98548414 -108 96 C-107.9375 93.25 -107.9375 93.25 -107 91 C-105 89.375 -105 89.375 -103 88 C-102.67 87.01 -102.34 86.02 -102 85 C-100.515 84.505 -100.515 84.505 -99 84 C-98.505 83.01 -98.505 83.01 -98 82 C-97.34 82 -96.68 82 -96 82 C-95.60929321 81.11574341 -95.60929321 81.11574341 -95.21069336 80.21362305 C-93.92243186 77.85817497 -92.58522387 76.40885765 -90.62890625 74.58203125 C-89.97212891 73.96779297 -89.31535156 73.35355469 -88.63867188 72.72070312 C-87.95353516 72.09099609 -87.26839844 71.46128906 -86.5625 70.8125 C-85.5405957 69.85053711 -85.5405957 69.85053711 -84.49804688 68.86914062 C-79.3877876 64.12926253 -79.3877876 64.12926253 -76 63 C-75.505 62.01 -75.505 62.01 -75 61 C-74 59 -74 59 -71 58 C-71 57.34 -71 56.68 -71 56 C-66.13513514 50.45945946 -66.13513514 50.45945946 -62 50 C-62 49.34 -62 48.68 -62 48 C-61.34773438 47.99742188 -60.69546875 47.99484375 -60.0234375 47.9921875 C-55.15936234 47.77696294 -51.95121079 47.58616813 -48.5 43.9375 C-47.675 42.968125 -46.85 41.99875 -46 41 C-45.34 41 -44.68 41 -44 41 C-44 40.34 -44 39.68 -44 39 C-42.70703125 37.6953125 -42.70703125 37.6953125 -40.8125 36.125 C-36.9476605 32.84366202 -33.21141488 29.4519689 -29.5 26 C-25.42436648 22.21929077 -21.31789933 18.49237463 -17.109375 14.859375 C-13.72567215 11.8767036 -10.42349777 8.80431552 -7.12280273 5.73022461 C-4.82408752 3.60371477 -2.61331694 1.74221129 0 0 Z " fill="#156BAB" transform="translate(116,65)"/>
<path d="M0 0 C3.92353234 1.61612165 6.71400006 4.31329165 9.75 7.1875 C10.82877238 8.19341092 11.90819893 9.19862075 12.98828125 10.203125 C13.5085791 10.68845703 14.02887695 11.17378906 14.56494141 11.67382812 C16.32409438 13.29950334 18.1227532 14.87426395 19.9375 16.4375 C23.48402507 19.51213816 26.93185282 22.68583515 30.375 25.875 C34.44348129 29.64163193 38.51703425 33.40140532 42.625 37.125 C43.78902344 38.18074219 43.78902344 38.18074219 44.9765625 39.2578125 C47.08510813 41.1452373 47.08510813 41.1452373 50 43 C50.36076355 45.74612427 50.36076355 45.74612427 50.34057617 49.28564453 C50.34123329 50.2516861 50.34123329 50.2516861 50.34190369 51.23724365 C50.33981094 53.36940664 50.31645865 55.50078662 50.29296875 57.6328125 C50.28737448 59.10968598 50.28310359 60.58656502 50.28010559 62.06344604 C50.26864335 65.95326063 50.23916473 69.8427399 50.20599365 73.73242188 C50.16993099 78.39795502 50.15613814 83.0636002 50.13863373 87.72923279 C50.10952773 94.81972183 50.05205116 101.90947496 50 109 C39.44 109 28.88 109 18 109 C18 92.17 18 75.34 18 58 C7.11 58 -3.78 58 -15 58 C-15 75.16 -15 92.32 -15 110 C-25.89 110 -36.78 110 -48 110 C-48.32087047 93.55984471 -48.32087047 93.55984471 -48.390625 86.52539062 C-48.43836244 81.73405658 -48.49468777 76.9439511 -48.60351562 72.15356445 C-48.69075591 68.28901844 -48.73833726 64.4257902 -48.75901794 60.56033516 C-48.77374503 59.08942485 -48.80250681 57.61858284 -48.84584045 56.14823723 C-49.17169161 44.62854271 -49.17169161 44.62854271 -46.25531006 40.57504272 C-44.25290339 38.80861384 -42.26952009 37.39678045 -40 36 C-34.57776422 31.17653872 -29.21690619 26.28700113 -23.875 21.375 C-19.97035789 17.78538732 -16.0307657 14.24423988 -12.0234375 10.76953125 C-7.97315928 7.22749258 -3.99194962 3.60747906 0 0 Z " fill="#F9FBFB" transform="translate(116,69)"/>
<path d="M0 0 C34.32 0 68.64 0 104 0 C104 0.33 104 0.66 104 1 C102.8140625 1.21914063 101.628125 1.43828125 100.40625 1.6640625 C68.91174081 7.73190205 40.08798643 22.95964911 21.63671875 49.87890625 C10.58376679 66.76000221 4.20966907 84.14180357 1 104 C0.67 104 0.34 104 0 104 C0 69.68 0 35.36 0 0 Z " fill="#FCFCFC" transform="translate(0,0)"/>
<path d="M0 0 C34.65 0 69.3 0 105 0 C105 34.32 105 68.64 105 104 C104.67 104 104.34 104 104 104 C103.78085938 102.73027344 103.56171875 101.46054688 103.3359375 100.15234375 C101.3365936 89.10095414 98.70605296 79.21414002 94 69 C93.53722656 67.96617188 93.07445312 66.93234375 92.59765625 65.8671875 C79.82786563 38.77117748 56.75956421 18.82939142 29 8 C19.55035514 4.64850861 9.95087259 2.28460205 0 1 C0 0.67 0 0.34 0 0 Z " fill="#FBFCFC" transform="translate(129,0)"/>
<path d="M0 0 C0.33 0 0.66 0 1 0 C1 34.98 1 69.96 1 106 C-33.98 106 -68.96 106 -105 106 C-105 105.67 -105 105.34 -105 105 C-103.93265625 104.86464844 -102.8653125 104.72929687 -101.765625 104.58984375 C-70.04115904 100.1710531 -42.21875262 84.79058437 -22.71875 59.19311523 C-9.68917882 41.56147136 -2.92228797 21.62493098 0 0 Z " fill="#FAFCFC" transform="translate(233,128)"/>
<path d="M0 0 C0.33 0 0.66 0 1 0 C1.23074219 1.28132812 1.46148437 2.56265625 1.69921875 3.8828125 C7.70042411 36.16904678 22.83251668 64.8364019 50.33349609 83.87988281 C66.94192786 95.04300689 84.37955684 100.70261863 104 104 C104 104.33 104 104.66 104 105 C69.68 105 35.36 105 0 105 C0 70.35 0 35.7 0 0 Z " fill="#FBFCFC" transform="translate(0,129)"/>
<path d="M0 0 C10.56 0 21.12 0 32 0 C32 16.83 32 33.66 32 51 C42.56 51 53.12 51 64 51 C63.67 51.99 63.34 52.98 63 54 C62.360625 54.144375 61.72125 54.28875 61.0625 54.4375 C58.79688294 54.80104993 58.79688294 54.80104993 57.75 57.0625 C57.37875 58.0215625 57.37875 58.0215625 57 59 C56.34 59 55.68 59 55 59 C54.34 60.32 53.68 61.64 53 63 C51 60 51 60 51.375 57.8125 C51.58125 57.214375 51.7875 56.61625 52 56 C52.66 56.33 53.32 56.66 54 57 C54.99 56.67 55.98 56.34 57 56 C57.33 55.01 57.66 54.02 58 53 C56.41590006 53.11487748 54.83271037 53.24234508 53.25 53.375 C52.36828125 53.44460937 51.4865625 53.51421875 50.578125 53.5859375 C46.83076686 54.18778593 44.67411431 55.32588569 42 58 C41.01 58 40.02 58 39 58 C39 57.34 39 56.68 39 56 C34.95858806 55.36605303 31.0934693 54.87595548 27 55 C26.67 54.01 26.34 53.02 26 52 C25.67 53.32 25.34 54.64 25 56 C21.28400809 56.20086443 20.22791555 56.1519437 17 54 C16.05125 54.165 15.1025 54.33 14.125 54.5 C11 55 11 55 8.84106445 54.05712891 C5.05186827 52.64721059 1.40983284 52.64478814 -2.58203125 52.5859375 C-3.39621017 52.56657135 -4.2103891 52.5472052 -5.04924011 52.5272522 C-7.63688852 52.46771248 -10.22458203 52.42117417 -12.8125 52.375 C-14.57228449 52.3367966 -16.33205074 52.2977435 -18.09179688 52.2578125 C-22.39438234 52.16203218 -26.6970553 52.07790715 -31 52 C-31 51.67 -31 51.34 -31 51 C-20.77 51 -10.54 51 0 51 C0 34.17 0 17.34 0 0 Z " fill="#18517D" transform="translate(101,128)"/>
<path d="M0 0 C3.006818 1.33999498 4.99762609 2.79845291 7.25 5.1875 C10.27296345 8.29993806 13.42331301 11.15942477 16.70703125 13.9921875 C19.46905749 16.41072496 22.17402855 18.88885914 24.875 21.375 C29.34373125 25.48715385 33.84309296 29.56196186 38.3671875 33.61328125 C40.3250955 35.38818004 42.26571846 37.17527219 44.1953125 38.98046875 C45.31744099 40.02893203 46.43983878 41.07710717 47.5625 42.125 C48.38548584 42.89324097 48.38548584 42.89324097 49.22509766 43.67700195 C53.12757353 47.28390638 57.17559898 50.58274828 61.48828125 53.6953125 C61.98714844 54.12585938 62.48601562 54.55640625 63 55 C63 55.66 63 56.32 63 57 C59.53896089 57.49443416 57.35585329 57.74461182 54 57 C50.56322743 54.39638442 47.86773331 51.20359397 45 48 C43.77213029 46.87127505 42.52269859 45.76542501 41.25 44.6875 C37.58500076 41.54293065 34.03855929 38.28497682 30.5 35 C26.4238836 31.21962341 22.32250541 27.48687565 18.10546875 23.86328125 C16.36803019 22.32569648 14.67425532 20.76100278 12.98828125 19.16796875 C12.45404541 18.666604 11.91980957 18.16523926 11.36938477 17.64868164 C10.31075916 16.65261917 9.25759403 15.65071269 8.21069336 14.64233398 C6.23291165 12.78752993 4.34918466 11.1792042 1.9296875 9.9375 C-1.16974638 10.03788652 -2.44155092 11.76267304 -4.625 13.875 C-5.50414062 14.70773438 -6.38328125 15.54046875 -7.2890625 16.3984375 C-8.18367188 17.25695312 -9.07828125 18.11546875 -10 19 C-11.66077356 20.50652214 -13.32731224 22.00671723 -15 23.5 C-15.825 24.2425 -16.65 24.985 -17.5 25.75 C-25 32.5 -25 32.5 -27.4765625 34.72265625 C-29.22959045 36.30472327 -30.97378472 37.89661158 -32.7109375 39.49609375 C-33.59007813 40.30175781 -34.46921875 41.10742188 -35.375 41.9375 C-36.16648437 42.66839844 -36.95796875 43.39929688 -37.7734375 44.15234375 C-39.79568821 45.83045706 -41.60312855 46.95478893 -44 48 C-44 48.66 -44 49.32 -44 50 C-46.88809421 53.4783042 -49.98484054 56.63671239 -54.53515625 57.45703125 C-56.73113516 57.43963047 -58.8281061 57.31673453 -61 57 C-55.63015526 50.35834992 -49.47016524 44.88362269 -43.03515625 39.29296875 C-42.42542969 38.76316406 -41.81570312 38.23335937 -41.1875 37.6875 C-40.55972656 37.14351562 -39.93195313 36.59953125 -39.28515625 36.0390625 C-37.3917198 34.34953459 -35.53322851 32.63529599 -33.68359375 30.8984375 C-33.09747314 30.34969971 -32.51135254 29.80096191 -31.9074707 29.2355957 C-30.73137522 28.13166715 -29.55923605 27.02350646 -28.39135742 25.91088867 C-24.22119709 22 -24.22119709 22 -22 22 C-22 21.34 -22 20.68 -22 20 C-20.6015625 18.58984375 -20.6015625 18.58984375 -18.625 16.9375 C-14.41316985 13.37018478 -10.34822502 9.66611264 -6.296875 5.91796875 C-4.24380935 4.2035891 -2.44010525 3.05775205 0 2 C0 1.34 0 0.68 0 0 Z " fill="#E9F5F7" transform="translate(116,56)"/>
<path d="M0 0 C6.6 0 13.2 0 20 0 C20 14.85 20 29.7 20 45 C13.4 45 6.8 45 0 45 C0 30.15 0 15.3 0 0 Z " fill="#F5FAFB" transform="translate(107,134)"/>
<path d="M0 0 C3.7738203 1.01900316 6.14926461 2.75934718 8.92578125 5.44921875 C9.64056641 6.13306641 10.35535156 6.81691406 11.09179688 7.52148438 C12.19104492 8.59366211 12.19104492 8.59366211 13.3125 9.6875 C14.76558002 11.08863793 16.22000112 12.48838644 17.67578125 13.88671875 C18.75182617 14.92070801 18.75182617 14.92070801 19.84960938 15.97558594 C22.55693647 18.5243094 25.34648877 20.96604483 28.15795898 23.39868164 C30.77698543 25.67544698 33.32415431 28.02200384 35.875 30.375 C40.56485334 34.69317908 45.28821683 38.971495 50.0390625 43.22265625 C51.39086769 44.44789801 52.70992352 45.70992352 54 47 C56.65537372 47.56520003 59.29144713 47.73788198 62 48 C60.86913662 51.39259014 59.79067537 52.33037102 57.125 54.625 C56.07699219 55.54152344 56.07699219 55.54152344 55.0078125 56.4765625 C53 58 53 58 50 59 C50.020625 58.21496094 50.04125 57.42992187 50.0625 56.62109375 C50.04053371 50.42483262 50.04053371 50.42483262 47.50390625 44.9609375 C45.41067944 43.18358998 43.23278968 41.59801311 41 40 C39.39925625 38.60303603 37.81667659 37.18506563 36.25 35.75 C35.40953125 34.99203125 34.5690625 34.2340625 33.703125 33.453125 C30.79286064 30.81201804 27.89473819 28.15809346 25 25.5 C17.43221786 18.551675 9.83732075 11.64468498 2 5 C-2.09186347 6.65058261 -4.97872536 9.57175696 -8.125 12.5625 C-9.28989374 13.65414849 -10.45526274 14.74529003 -11.62109375 15.8359375 C-12.48130127 16.64369629 -12.48130127 16.64369629 -13.35888672 17.46777344 C-17.18394314 21.03904004 -21.10161578 24.50928995 -25 28 C-26.64636117 29.47857914 -28.29218774 30.95775375 -29.9375 32.4375 C-30.75089844 33.16710937 -31.56429687 33.89671875 -32.40234375 34.6484375 C-34.28211811 36.35012798 -36.14791185 38.06186592 -38.00390625 39.7890625 C-38.50349854 40.25127197 -39.00309082 40.71348145 -39.51782227 41.18969727 C-40.93176602 42.49930124 -42.34100586 43.81397848 -43.75 45.12890625 C-46 47 -46 47 -48 47 C-48 68.78 -48 90.56 -48 113 C-48.33 113 -48.66 113 -49 113 C-49.70907293 92.32373511 -50.16168488 71.69069023 -50 51 C-51.093125 51.474375 -52.18625 51.94875 -53.3125 52.4375 C-55.53476255 53.40187809 -57.69500485 54.23166828 -60 55 C-60.99 51.535 -60.99 51.535 -62 48 C-61.34773438 47.99742188 -60.69546875 47.99484375 -60.0234375 47.9921875 C-55.15936234 47.77696294 -51.95121079 47.58616813 -48.5 43.9375 C-47.675 42.968125 -46.85 41.99875 -46 41 C-45.34 41 -44.68 41 -44 41 C-44 40.34 -44 39.68 -44 39 C-42.70703125 37.6953125 -42.70703125 37.6953125 -40.8125 36.125 C-36.9476605 32.84366202 -33.21141488 29.4519689 -29.5 26 C-25.42436648 22.21929077 -21.31789933 18.49237463 -17.109375 14.859375 C-13.72567215 11.8767036 -10.42349777 8.80431552 -7.12280273 5.73022461 C-4.82408752 3.60371477 -2.61331694 1.74221129 0 0 Z " fill="#1E4967" transform="translate(116,65)"/>
<path d="M0 0 C6.6 0.33 13.2 0.66 20 1 C20 1.99 20 2.98 20 4 C18.04174127 4.02694851 16.08337774 4.04637218 14.125 4.0625 C12.48917969 4.07990234 12.48917969 4.07990234 10.8203125 4.09765625 C8 4 8 4 6 3 C6 18.84 6 34.68 6 51 C12.6 51 19.2 51 26 51 C26 52.65 26 54.3 26 56 C20.375 56.25 20.375 56.25 17 54 C16.05125 54.165 15.1025 54.33 14.125 54.5 C11 55 11 55 8.84106445 54.05712891 C5.05186827 52.64721059 1.40983284 52.64478814 -2.58203125 52.5859375 C-3.39621017 52.56657135 -4.2103891 52.5472052 -5.04924011 52.5272522 C-7.63688852 52.46771248 -10.22458203 52.42117417 -12.8125 52.375 C-14.57228449 52.3367966 -16.33205074 52.2977435 -18.09179688 52.2578125 C-22.39438234 52.16203218 -26.6970553 52.07790715 -31 52 C-31 51.67 -31 51.34 -31 51 C-20.77 51 -10.54 51 0 51 C0 34.17 0 17.34 0 0 Z " fill="#135B8F" transform="translate(101,128)"/>
<path d="M0 0 C0.61875 0.165 1.2375 0.33 1.875 0.5 C4.16786836 1.23577017 4.16786836 1.23577017 7 0 C10.1875 0.9375 10.1875 0.9375 13 2 C12.67 2.99 12.34 3.98 12 5 C12.45375 5.7425 12.9075 6.485 13.375 7.25 C15.30623946 10.51825139 15.63274633 13.25401257 16 17 C16.99 17 17.98 17 19 17 C21 17 23 17 25 17 C25 17.66 25 18.32 25 19 C25.66 19.66 26.32 20.32 27 21 C26.01 21.33 25.02 21.66 24 22 C26.297221 23.74271938 28.59866729 25.39911152 31 27 C31 29 31 31 31 33 C32.093125 32.938125 33.18625 32.87625 34.3125 32.8125 C38 33 38 33 39.9375 34.3125 C41 36 41 36 41 39 C40.01 39.33 39.02 39.66 38 40 C37.4740625 39.38125 37.4740625 39.38125 36.9375 38.75 C34.95557656 36.81665105 34.95557656 36.81665105 31.9375 35.375 C26.66451288 32.47825171 22.14888668 28.32419175 18 24 C18 23.34 18 22.68 18 22 C17.01 21.67 16.02 21.34 15 21 C15 20.34 15 19.68 15 19 C14.11634766 18.86078125 14.11634766 18.86078125 13.21484375 18.71875 C6.74129251 16.61798558 2.8237054 8.3525196 -0.15234375 2.6875 C-0.43207031 2.130625 -0.71179688 1.57375 -1 1 C-0.67 0.67 -0.34 0.34 0 0 Z " fill="#1879C2" transform="translate(17,175)"/>
<path d="M0 0 C8.91 0 17.82 0 27 0 C27 16.5 27 33 27 50 C26.67 50 26.34 50 26 50 C26 33.83 26 17.66 26 1 C24.02 1.99 24.02 1.99 22 3 C22.33 3.99 22.66 4.98 23 6 C15.74 6 8.48 6 1 6 C1 20.19 1 34.38 1 49 C0.67 49 0.34 49 0 49 C-0.02529951 42.77035385 -0.04284549 36.54072088 -0.05493164 30.31103516 C-0.05996872 28.19058741 -0.06679859 26.07014315 -0.07543945 23.94970703 C-0.08753234 20.90656678 -0.09323447 17.86347234 -0.09765625 14.8203125 C-0.10281754 13.86818878 -0.10797882 12.91606506 -0.11329651 11.93508911 C-0.11337204 11.05432709 -0.11344757 10.17356506 -0.11352539 9.26611328 C-0.115746 8.48889923 -0.11796661 7.71168518 -0.12025452 6.91091919 C0 5 0 5 1 3 C7.93 3.495 7.93 3.495 15 4 C15 3.01 15 2.02 15 1 C10.05 1 5.1 1 0 1 C0 0.67 0 0.34 0 0 Z " fill="#093D65" transform="translate(106,128)"/>
<path d="M0 0 C0.66 0.33 1.32 0.66 2 1 C1.0409375 2.175625 1.0409375 2.175625 0.0625 3.375 C-1.98142313 5.79539281 -1.98142313 5.79539281 -3 8 C-4.0725 8.144375 -5.145 8.28875 -6.25 8.4375 C-11.18220669 9.177331 -13.79166264 10.94270481 -17.5 14.1875 C-20.31627361 16.22929837 -21.60715864 16.3877533 -25 16 C-24.67 17.65 -24.34 19.3 -24 21 C-34.23 21 -44.46 21 -55 21 C-55 20.67 -55 20.34 -55 20 C-53.93265625 19.86464844 -52.8653125 19.72929687 -51.765625 19.58984375 C-35.14455262 17.27475232 -12.39021596 12.39021596 0 0 Z " fill="#ECF9FA" transform="translate(183,213)"/>
<path d="M0 0 C0.99 0 1.98 0 3 0 C3 22.11 3 44.22 3 67 C2.67 67 2.34 67 2 67 C1.29092707 46.32373511 0.83831512 25.69069023 1 5 C-0.6396875 5.7115625 -0.6396875 5.7115625 -2.3125 6.4375 C-4.53476255 7.40187809 -6.69500485 8.23166828 -9 9 C-9.66 6.69 -10.32 4.38 -11 2 C-10.28972656 1.93941406 -9.57945313 1.87882812 -8.84765625 1.81640625 C-7.46900391 1.69072266 -7.46900391 1.69072266 -6.0625 1.5625 C-5.14597656 1.48128906 -4.22945312 1.40007812 -3.28515625 1.31640625 C-1.03840268 1.23955024 -1.03840268 1.23955024 0 0 Z " fill="#0F4D82" transform="translate(65,111)"/>
<path d="M0 0 C6.6 0.33 13.2 0.66 20 1 C20 1.99 20 2.98 20 4 C18.04174127 4.02694851 16.08337774 4.04637218 14.125 4.0625 C13.03445312 4.07410156 11.94390625 4.08570313 10.8203125 4.09765625 C8 4 8 4 6 3 C5.67 9.93 5.34 16.86 5 24 C4.67 24 4.34 24 4 24 C3.67 20.04 3.34 16.08 3 12 C2.67 12 2.34 12 2 12 C1.67 24.21 1.34 36.42 1 49 C0.67 49 0.34 49 0 49 C0 32.83 0 16.66 0 0 Z " fill="#13517F" transform="translate(101,128)"/>
<path d="M0 0 C0.76812012 0.97791504 0.76812012 0.97791504 1.55175781 1.97558594 C4.87006531 4.71944371 6.90680194 4.46054423 11.171875 4.390625 C11.8542926 4.38496521 12.53671021 4.37930542 13.23980713 4.37347412 C15.41059762 4.35115636 17.57971206 4.30097508 19.75 4.25 C21.2252365 4.22992876 22.70049899 4.21167907 24.17578125 4.1953125 C27.78439501 4.1513088 31.39203381 4.08231583 35 4 C35 4.66 35 5.32 35 6 C34.071875 6.12375 34.071875 6.12375 33.125 6.25 C30.81562433 6.81258459 30.81562433 6.81258459 29.75 9.0625 C29.5025 9.701875 29.255 10.34125 29 11 C28.34 11 27.68 11 27 11 C26.34 12.32 25.68 13.64 25 15 C23 12 23 12 23.375 9.8125 C23.684375 8.9153125 23.684375 8.9153125 24 8 C24.66 8.33 25.32 8.66 26 9 C26.99 8.67 27.98 8.34 29 8 C29.33 7.01 29.66 6.02 30 5 C28.41590006 5.11487748 26.83271037 5.24234508 25.25 5.375 C23.92742187 5.47941406 23.92742187 5.47941406 22.578125 5.5859375 C18.83076686 6.18778593 16.67411431 7.32588569 14 10 C13.01 10 12.02 10 11 10 C11 9.34 11 8.68 11 8 C6.95858806 7.36605303 3.0934693 6.87595548 -1 7 C-0.67 4.69 -0.34 2.38 0 0 Z " fill="#0F5A93" transform="translate(129,176)"/>
<path d="M0 0 C0.33 0 0.66 0 1 0 C1 2.31 1 4.62 1 7 C0.21625 7.061875 -0.5675 7.12375 -1.375 7.1875 C-2.24125 7.455625 -3.1075 7.72375 -4 8 C-5.07541875 10.31230133 -5.07541875 10.31230133 -6 13 C-6.77594574 14.57036638 -7.56810322 16.13281034 -8.375 17.6875 C-12.23018597 25.36365431 -15.36058552 32.36790448 -16 41 C-16.66 41 -17.32 41 -18 41 C-17.938125 42.155 -17.87625 43.31 -17.8125 44.5 C-17.78725644 49.21213121 -19.15525488 52.69559472 -21 57 C-21.33 57 -21.66 57 -22 57 C-21.53787383 37.54868932 -12.77177016 14.78636486 0 0 Z " fill="#3688BD" transform="translate(23,47)"/>
<path d="M0 0 C0.33 0 0.66 0 1 0 C1.10546143 0.55349121 1.21092285 1.10698242 1.31958008 1.67724609 C4.03377238 15.99308343 4.03377238 15.99308343 8 30 C6.02253397 30.73080266 4.01927511 31.39421747 2 32 C1.34 31.67 0.68 31.34 0 31 C0 20.77 0 10.54 0 0 Z " fill="#F4F9FA" transform="translate(0,129)"/>
<path d="M0 0 C0.61875 0.165 1.2375 0.33 1.875 0.5 C4.16786836 1.23577017 4.16786836 1.23577017 7 0 C10.1875 0.9375 10.1875 0.9375 13 2 C12.67 2.99 12.34 3.98 12 5 C12.495 5.804375 12.99 6.60875 13.5 7.4375 C15 10 15 10 14.6875 12.3125 C14.460625 12.869375 14.23375 13.42625 14 14 C10.39566596 11.59711064 9.19694648 9.72525707 7 6 C7 8.66420516 7.09162237 10.52260646 8 13 C8.99 13.33 9.98 13.66 11 14 C10.67 14.99 10.34 15.98 10 17 C1.3690205 6.62642369 1.3690205 6.62642369 -1 1 C-0.67 0.67 -0.34 0.34 0 0 Z " fill="#1977BA" transform="translate(17,175)"/>
<path d="M0 0 C0.99 0.33 1.98 0.66 3 1 C2.071875 1.845625 1.14375 2.69125 0.1875 3.5625 C-4.16420709 7.8786103 -7.63367641 12.77890297 -11.17895508 17.75610352 C-11.63036865 18.38830811 -12.08178223 19.0205127 -12.546875 19.671875 C-12.94745117 20.2400293 -13.34802734 20.80818359 -13.76074219 21.39355469 C-15.05808216 23.07529168 -16.46870166 24.53088637 -18 26 C-17.7896376 15.25239382 -17.7896376 15.25239382 -14.625 11.375 C-12 9 -12 9 -9 8 C-8.67 8.33 -8.34 8.66 -8 9 C-7.38125 7.824375 -7.38125 7.824375 -6.75 6.625 C-4.92328152 3.88492228 -3.92303045 3.26664653 -1 2 C-0.67 1.34 -0.34 0.68 0 0 Z " fill="#F6F9F5" transform="translate(34,31)"/>
<path d="M0 0 C1.51400391 0.01740234 1.51400391 0.01740234 3.05859375 0.03515625 C4.07050781 0.04417969 5.08242187 0.05320313 6.125 0.0625 C6.90746094 0.07410156 7.68992188 0.08570312 8.49609375 0.09765625 C5.63220477 2.00691557 3.28918138 2.77837449 -0.00048828 3.64453125 C-7.05172935 5.50516629 -13.61100182 7.81354287 -20.12890625 11.09765625 C-21.08543091 11.5774292 -21.08543091 11.5774292 -22.0612793 12.06689453 C-25.3449077 13.77930351 -28.35178604 15.65713382 -31.33984375 17.84765625 C-34.50390625 20.09765625 -34.50390625 20.09765625 -36.50390625 20.09765625 C-36.00890625 18.61265625 -36.00890625 18.61265625 -35.50390625 17.09765625 C-34.84390625 17.09765625 -34.18390625 17.09765625 -33.50390625 17.09765625 C-33.50390625 16.43765625 -33.50390625 15.77765625 -33.50390625 15.09765625 C-32.61703125 14.66453125 -31.73015625 14.23140625 -30.81640625 13.78515625 C-27.95849232 12.32923783 -25.23851263 10.7688046 -22.50390625 9.09765625 C-21.84390625 8.76765625 -21.18390625 8.43765625 -20.50390625 8.09765625 C-20.50390625 7.10765625 -20.50390625 6.11765625 -20.50390625 5.09765625 C-18.51822917 5.16276042 -16.53255208 5.22786458 -14.546875 5.29296875 C-12.19030906 5.23020087 -12.19030906 5.23020087 -9.50390625 3.09765625 C-7.50793405 2.4190257 -5.50822074 1.75123706 -3.50390625 1.09765625 C-2.50390625 0.09765625 -2.50390625 0.09765625 0 0 Z " fill="#DFF7FD" transform="translate(84.50390625,1.90234375)"/>
<path d="M0 0 C0.66 0 1.32 0 2 0 C3.375 1.46875 3.375 1.46875 5 3.5 C9.97628987 9.36305012 15.94431464 14.78844666 23 18 C23 18.66 23 19.32 23 20 C25.31 20.33 27.62 20.66 30 21 C30 21.99 30 22.98 30 24 C30.58007812 24.18175781 31.16015625 24.36351562 31.7578125 24.55078125 C36.39147293 26.0418106 40.69762355 27.68333576 45 30 C45 30.66 45 31.32 45 32 C38.7899183 30.15756739 33.3074257 27.82149922 27.75 24.5 C27.02127686 24.0678418 26.29255371 23.63568359 25.54174805 23.19042969 C16.02251469 17.38335391 7.64308053 10.1073269 0 2 C0 1.34 0 0.68 0 0 Z " fill="#3276A7" transform="translate(30,194)"/>
<path d="M0 0 C3.4072219 1.70361095 5.48035706 3.13232136 8.25 5.625 C8.95640625 6.25664063 9.6628125 6.88828125 10.390625 7.5390625 C10.92171875 8.02117187 11.4528125 8.50328125 12 9 C11.34 9.66 10.68 10.32 10 11 C8.9275 10.67 7.855 10.34 6.75 10 C3.00268399 8.8282249 3.00268399 8.8282249 -1 9 C-3.6875 8.625 -3.6875 8.625 -6 8 C-6.33 7.34 -6.66 6.68 -7 6 C-4.69 4.02 -2.38 2.04 0 0 Z " fill="#FCF7ED" transform="translate(116,69)"/>
<path d="M0 0 C3.57355319 1.54688529 6.12558556 3.70537105 9 6.3125 C9.845625 7.07175781 10.69125 7.83101563 11.5625 8.61328125 C13.93931502 10.94057929 15.98139525 13.35992666 18 16 C16.68 15.67 15.36 15.34 14 15 C14 14.34 14 13.68 14 13 C13.04287109 12.70996094 13.04287109 12.70996094 12.06640625 12.4140625 C11.24011719 12.15367188 10.41382813 11.89328125 9.5625 11.625 C8.73878906 11.36976562 7.91507813 11.11453125 7.06640625 10.8515625 C5 10 5 10 4 8 C2.35636866 7.27840576 0.68949614 6.60648579 -1 6 C-1.042721 4.33388095 -1.04063832 2.66617115 -1 1 C-0.67 0.67 -0.34 0.34 0 0 Z " fill="#F2FCFC" transform="translate(143,81)"/>
<path d="M0 0 C0.66 0.33 1.32 0.66 2 1 C-8.15969457 8.81514967 -20.1295163 16.16135947 -33 18 C-30.80202597 15.80202597 -29.82453855 15.54102483 -26.875 14.875 C-25.59625 14.58625 -24.3175 14.2975 -23 14 C-23.66 13.01 -24.32 12.02 -25 11 C-25 10.01 -25 9.02 -25 8 C-23.35 8.33 -21.7 8.66 -20 9 C-20 9.66 -20 10.32 -20 11 C-18.989375 10.401875 -17.97875 9.80375 -16.9375 9.1875 C-14.42614819 7.74079835 -11.93921085 6.51547791 -9.25 5.4375 C-6.3348007 4.14808493 -5.06747765 3.27422541 -3 1 C-2.01 0.67 -1.02 0.34 0 0 Z " fill="#277BB7" transform="translate(185,210)"/>
<path d="M0 0 C0.99 0.33 1.98 0.66 3 1 C-1.56431483 11.28171971 -11.84785124 21.5396597 -21 28 C-21.66 28 -22.32 28 -23 28 C-23 26.68 -23 25.36 -23 24 C-22.360625 23.896875 -21.72125 23.79375 -21.0625 23.6875 C-20.0415625 23.3471875 -20.0415625 23.3471875 -19 23 C-18.67 22.01 -18.34 21.02 -18 20 C-17.2575 19.71125 -16.515 19.4225 -15.75 19.125 C-10.59935448 17.01791774 -7.24184781 12.39965059 -4 8 C-3.67 7.01 -3.34 6.02 -3 5 C-3.66 4.67 -4.32 4.34 -5 4 C-4.34 3.67 -3.68 3.34 -3 3 C-2.01 3.33 -1.02 3.66 0 4 C0 2.68 0 1.36 0 0 Z " fill="#1F73AC" transform="translate(210,182)"/>
<path d="M0 0 C2 0 2 0 4.12109375 1.57421875 C6.64721621 4.83559514 6.31372494 6.74441889 6.0625 10.8125 C5.8074614 16.63282544 5.8074614 16.63282544 7.5625 22.0625 C9.16118861 25.32938543 9.12920253 26.6123924 8 30 C1.76125382 23.76125382 1.0700064 8.3488657 0 0 Z " fill="#2B88CB" transform="translate(0,128)"/>
<path d="M0 0 C0 0.99 0 1.98 0 3 C-1.828125 4.46484375 -1.828125 4.46484375 -4.25 5.9375 C-7.58920577 8.03957459 -10.25771512 10.14802373 -13 13 C-13.66 13 -14.32 13 -15 13 C-15 13.99 -15 14.98 -15 16 C-15.66 16 -16.32 16 -17 16 C-17.2475 16.763125 -17.495 17.52625 -17.75 18.3125 C-19.15183926 21.32645441 -20.29268666 22.16858215 -23 24 C-24.35197858 25.31442362 -25.69026002 26.6434836 -27 28 C-27.66 27.67 -28.32 27.34 -29 27 C-21.00205971 16.15573389 -11.60793923 6.94717575 0 0 Z " fill="#3287C5" transform="translate(53,19)"/>
<path d="M0 0 C0.99 0.33 1.98 0.66 3 1 C3 1.99 3 2.98 3 4 C3.99 4 4.98 4 6 4 C6.99719643 8.21630143 7.99117443 12.43326686 8.9765625 16.65234375 C9.53637899 19.04609459 10.10922659 21.43270533 10.7109375 23.81640625 C11.98664693 28.98395386 12.16910588 33.67316463 12 39 C11.67 39 11.34 39 11 39 C10.78085938 37.73027344 10.56171875 36.46054688 10.3359375 35.15234375 C8.54157288 25.25293357 6.30190035 16.19726055 2.26953125 6.96875 C1.26242738 4.61367634 0.50799698 2.49714176 0 0 Z " fill="#D9F6FD" transform="translate(222,65)"/>
<path d="M0 0 C-1.98 0.33 -3.96 0.66 -6 1 C-6 1.66 -6 2.32 -6 3 C-8.97851562 3.29296875 -8.97851562 3.29296875 -11.95703125 3.5859375 C-14.29988142 3.92665391 -14.29988142 3.92665391 -17 6 C-19.32387947 6.39387788 -21.65793749 6.73486085 -24 7 C-24.33 7.99 -24.66 8.98 -25 10 C-27.31939207 10.7136591 -29.65523449 11.3747292 -32 12 C-32.928125 12.556875 -33.85625 13.11375 -34.8125 13.6875 C-35.534375 14.120625 -36.25625 14.55375 -37 15 C-37.66 14.67 -38.32 14.34 -39 14 C-30.29623122 7.3483393 -11.22755018 -3.74251673 0 0 Z " fill="#3485BB" transform="translate(94,4)"/>
<path d="M0 0 C0.66 0.66 1.32 1.32 2 2 C-0.2691467 6.29821303 -3.05551122 9.10780402 -6.6875 12.3125 C-7.19861328 12.76689453 -7.70972656 13.22128906 -8.23632812 13.68945312 C-9.48576335 14.79876478 -10.74217823 15.90020678 -12 17 C-13.32 16.34 -14.64 15.68 -16 15 C-14.71034824 13.62437146 -13.37310707 12.29233607 -12 11 C-11.34 11 -10.68 11 -10 11 C-10 10.34 -10 9.68 -10 9 C-8.3203125 7.34375 -8.3203125 7.34375 -6.125 5.5 C-4.00964496 3.71066742 -1.95980876 1.95980876 0 0 Z " fill="#264F71" transform="translate(82,95)"/>
<path d="M0 0 C3.63 0.33 7.26 0.66 11 1 C9.86180149 4.41459553 8.75994482 5.3324158 6.0625 7.625 C5.35222656 8.23601562 4.64195312 8.84703125 3.91015625 9.4765625 C2 11 2 11 0 12 C0 8.04 0 4.08 0 0 Z " fill="#0C4E80" transform="translate(167,112)"/>
<path d="M0 0 C0.66 0 1.32 0 2 0 C1.82984375 0.57363281 1.6596875 1.14726563 1.484375 1.73828125 C-1.17263284 11.05194171 -3.06399946 20.51654557 -5 30 C-5.33 30 -5.66 30 -6 30 C-6.08115993 26.93696422 -6.14057409 23.87609185 -6.1875 20.8125 C-6.21263672 19.94818359 -6.23777344 19.08386719 -6.26367188 18.19335938 C-6.31933634 13.35055062 -6.30477143 9.86490218 -3 6 C-2.34 6 -1.68 6 -1 6 C-1.020625 5.195625 -1.04125 4.39125 -1.0625 3.5625 C-1 1 -1 1 0 0 Z " fill="#E5FAFE" transform="translate(6,74)"/>
<path d="M0 0 C0.66 0 1.32 0 2 0 C1.0216698 2.1824289 0.32304164 3.73929973 -1.55859375 5.2578125 C-3.67084125 7.81082709 -3.32916881 9.80470327 -3.25 13.0625 C-3.23453125 14.12597656 -3.2190625 15.18945312 -3.203125 16.28515625 C-3.17511201 18.96580301 -3.17511201 18.96580301 -2 21 C-2.99 21 -3.98 21 -5 21 C-5 19.68 -5 18.36 -5 17 C-5.66 17 -6.32 17 -7 17 C-8.76462683 13.91190305 -9 12.76687864 -9 9 C-7.70264493 7.95374591 -6.36733028 6.95298777 -5 6 C-4.67 5.01 -4.34 4.02 -4 3 C-3.01 2.67 -2.02 2.34 -1 2 C-0.67 1.34 -0.34 0.68 0 0 Z " fill="#1477BF" transform="translate(18,147)"/>
<path d="M0 0 C-0.33 0.99 -0.66 1.98 -1 3 C-1.66 3 -2.32 3 -3 3 C-3 3.99 -3 4.98 -3 6 C-10.59 6 -18.18 6 -26 6 C-26 5.67 -26 5.34 -26 5 C-24.77023438 4.80664062 -23.54046875 4.61328125 -22.2734375 4.4140625 C-20.64058272 4.15130426 -19.00777254 3.88826875 -17.375 3.625 C-16.56675781 3.49867188 -15.75851563 3.37234375 -14.92578125 3.2421875 C-10.03170689 2.44640305 -4.82317862 0 0 0 Z " fill="#DBF0F6" transform="translate(154,228)"/>
<path d="M0 0 C3 0 3 0 5 1 C6.2022972 4.60689159 5.43388238 5.75647221 3.79492188 9.04492188 C3.47072266 9.66947266 3.14652344 10.29402344 2.8125 10.9375 C2.50763672 11.55818359 2.20277344 12.17886719 1.88867188 12.81835938 C0.03005339 16.47714921 -1.92555069 19.28003265 -5 22 C-3.16336634 17.27722772 -3.16336634 17.27722772 -1.96875 15.25 C-0.67258084 12.23954261 -0.5707712 9.51285333 -0.375 6.25 C-0.30023438 5.07953125 -0.22546875 3.9090625 -0.1484375 2.703125 C-0.09945312 1.81109375 -0.05046875 0.9190625 0 0 Z " fill="#217DC2" transform="translate(218,161)"/>
<path d="M0 0 C10.25607949 -0.3570782 19.69261882 0.44972476 29 5 C28.67 5.66 28.34 6.32 28 7 C26.98421875 6.73445312 25.9684375 6.46890625 24.921875 6.1953125 C16.6579762 4.06490194 8.45803275 2.21744411 0 1 C0 0.67 0 0.34 0 0 Z " fill="#DFF8FD" transform="translate(129,0)"/>
<path d="M0 0 C0.86109375 0.44214844 1.7221875 0.88429688 2.609375 1.33984375 C2.609375 1.66984375 2.609375 1.99984375 2.609375 2.33984375 C-0.078125 2.58984375 -0.078125 2.58984375 -3.390625 2.33984375 C-4.11765625 1.72238281 -4.8446875 1.10492188 -5.59375 0.46875 C-9.09149073 -2.19363645 -12.22693177 -3.00036065 -16.453125 -3.97265625 C-17.16017578 -4.15376953 -17.86722656 -4.33488281 -18.59570312 -4.52148438 C-22.12464883 -5.37307033 -24.94603274 -6.04694015 -28.390625 -4.66015625 C-28.720625 -5.65015625 -29.050625 -6.64015625 -29.390625 -7.66015625 C-20.29644564 -10.69154937 -8.0637642 -3.94827164 0 0 Z " fill="#4184BA" transform="translate(168.390625,11.66015625)"/>
<path d="M0 0 C3.52324572 0.17186564 5.02591724 1.01727816 8 3 C8 4.98 8 6.96 8 9 C4.04 7.35 0.08 5.7 -4 4 C-2.68 2.68 -1.36 1.36 0 0 Z " fill="#1578C2" transform="translate(64,214)"/>
<path d="M0 0 C3.89917968 1.61537444 6.71293772 4.27924873 9.75 7.125 C10.25660156 7.59292969 10.76320312 8.06085938 11.28515625 8.54296875 C12.52719141 9.69126541 13.76411494 10.84508672 15 12 C14.34 12.66 13.68 13.32 13 14 C12.443125 13.3503125 12.443125 13.3503125 11.875 12.6875 C9.97249244 10.82017244 9.97249244 10.82017244 7.0625 9.5625 C4.00196405 8.00100207 2.11935647 6.68995245 0 4 C0 2.68 0 1.36 0 0 Z " fill="#234D6E" transform="translate(138,84)"/>
<path d="M0 0 C0.33 0 0.66 0 1 0 C1 2.31 1 4.62 1 7 C0.21625 7.061875 -0.5675 7.12375 -1.375 7.1875 C-2.24125 7.455625 -3.1075 7.72375 -4 8 C-5.07120658 10.29624259 -5.07120658 10.29624259 -6 13 C-6.81543964 14.696219 -7.64899569 16.3838421 -8.5 18.0625 C-8.9228125 18.89910156 -9.345625 19.73570313 -9.78125 20.59765625 C-10.38453125 21.78681641 -10.38453125 21.78681641 -11 23 C-11.66756863 24.33288197 -12.3345659 25.66605109 -13 27 C-12.02364928 16.82539773 -6.25730053 7.91364478 0 0 Z " fill="#3182B2" transform="translate(23,47)"/>
<path d="M0 0 C4.18423892 3.50897269 8.19588166 7.08060535 12 11 C10.68 11.33 9.36 11.66 8 12 C8 11.34 8 10.68 8 10 C7.01 10 6.02 10 5 10 C5 10.66 5 11.32 5 12 C4.01 11.67 3.02 11.34 2 11 C2.33 10.67 2.66 10.34 3 10 C2.34 9.67 1.68 9.34 1 9 C1.20625 8.443125 1.4125 7.88625 1.625 7.3125 C2.10695211 4.340462 1.26565028 2.68020059 0 0 Z " fill="#EAF2F3" transform="translate(134,84)"/>
<path d="M0 0 C0.66 0.33 1.32 0.66 2 1 C1.360625 1.78375 0.72125 2.5675 0.0625 3.375 C-1.98142313 5.79539281 -1.98142313 5.79539281 -3 8 C-4.0725 8.144375 -5.145 8.28875 -6.25 8.4375 C-10.04417924 9.00662689 -11.79359574 10.05928163 -15 12 C-17.8125 12.1875 -17.8125 12.1875 -20 12 C-17.76586136 10.51057424 -15.58168411 9.17110485 -13.2421875 7.87109375 C-12.53449219 7.47599609 -11.82679688 7.08089844 -11.09765625 6.67382812 C-9.60825952 5.84536756 -8.11867421 5.01724593 -6.62890625 4.18945312 C-5.92378906 3.79564453 -5.21867188 3.40183594 -4.4921875 2.99609375 C-3.84620605 2.63700928 -3.20022461 2.2779248 -2.53466797 1.90795898 C-1.00728724 1.09012794 -1.00728724 1.09012794 0 0 Z " fill="#E0F7FC" transform="translate(183,213)"/>
<path d="M0 0 C0.33 0 0.66 0 1 0 C1.64745092 3.20800907 2.29266893 6.41646339 2.9375 9.625 C3.11990234 10.52863281 3.30230469 11.43226563 3.49023438 12.36328125 C4.40068734 16.89899238 5.2787222 21.42937647 6 26 C5.01 25.67 4.02 25.34 3 25 C-0.47542794 17.08374747 -0.14009474 8.46794888 0 0 Z " fill="#D8F5FC" transform="translate(0,129)"/>
<path d="M0 0 C0.54301758 0.17128418 1.08603516 0.34256836 1.64550781 0.51904297 C16.60097764 5.21482449 16.60097764 5.21482449 32 8 C32 8.33 32 8.66 32 9 C24.18730687 9.15944272 17.30313465 8.70236135 9.99609375 5.75390625 C8.03319763 5.01253844 6.09931296 4.49566614 4.0625 4 C3.051875 3.67 2.04125 3.34 1 3 C0.67 2.01 0.34 1.02 0 0 Z " fill="#D7F5FC" transform="translate(72,225)"/>
<path d="M0 0 C4.75 -0.125 4.75 -0.125 7 1 C7 1.66 7 2.32 7 3 C8.98 2.34 10.96 1.68 13 1 C10.61042731 4.24299151 8.7952131 6.50902342 5 8 C5 7.01 5 6.02 5 5 C3.35 4.67 1.7 4.34 0 4 C0 2.68 0 1.36 0 0 Z " fill="#227CC2" transform="translate(55,99)"/>
<path d="M0 0 C3.36720387 1.39332574 4.9859524 2.9789286 7 6 C5.36587557 7.70840281 4.13093906 8.93453047 2 10 C1.34 9.34 0.68 8.68 0 8 C0.33 7.01 0.66 6.02 1 5 C-0.65 5 -2.3 5 -4 5 C-3.34 4.01 -2.68 3.02 -2 2 C-1.34 2 -0.68 2 0 2 C0 1.34 0 0.68 0 0 Z " fill="#D5EAF3" transform="translate(116,56)"/>
<path d="M0 0 C2.31 0.33 4.62 0.66 7 1 C7 1.99 7 2.98 7 4 C7.58007812 4.18175781 8.16015625 4.36351562 8.7578125 4.55078125 C13.39147293 6.0418106 17.69762355 7.68333576 22 10 C22 10.66 22 11.32 22 12 C16.09078502 10.39750102 11.13928529 8.09409961 5.9375 4.875 C5.35331299 4.5140625 4.76912598 4.153125 4.16723633 3.78125 C2.75653767 2.88740848 1.37500122 1.94783701 0 1 C0 0.67 0 0.34 0 0 Z " fill="#3073A2" transform="translate(53,214)"/>
<path d="M0 0 C0.94875 0.825 1.8975 1.65 2.875 2.5 C7.48450321 6.45641138 12.24034752 10.22675437 17 14 C16.67 14.66 16.34 15.32 16 16 C13.06120516 14.64763423 10.70767089 13.10057341 8.25 11 C7.63640625 10.484375 7.0228125 9.96875 6.390625 9.4375 C5 8 5 8 5 6 C4.34 6 3.68 6 3 6 C3 5.34 3 4.68 3 4 C2.01 3.67 1.02 3.34 0 3 C0 2.01 0 1.02 0 0 Z " fill="#D9F0F9" transform="translate(31,197)"/>
<path d="M0 0 C3.23861303 1.44424635 5.61969163 3.25772247 8.25 5.625 C8.95640625 6.25664063 9.6628125 6.88828125 10.390625 7.5390625 C10.92171875 8.02117187 11.4528125 8.50328125 12 9 C11.34 9.66 10.68 10.32 10 11 C7 10 7 10 5.625 7.5625 C3.7163149 4.55265042 2.35034331 3.99604801 -1 3 C-1 3.66 -1 4.32 -1 5 C-2.98 5.99 -2.98 5.99 -5 7 C-3.70700306 4.11562221 -2.34058637 2.12780579 0 0 Z " fill="#E6FBFD" transform="translate(116,69)"/>
<path d="M0 0 C0.99 0.33 1.98 0.66 3 1 C2.56429687 1.4125 2.12859375 1.825 1.6796875 2.25 C-2.72116319 6.51749158 -6.45604196 11.00211045 -10 16 C-10.578125 14.08984375 -10.578125 14.08984375 -11 12 C-9.75 10.5625 -9.75 10.5625 -8 9 C-7.2884375 7.7315625 -7.2884375 7.7315625 -6.5625 6.4375 C-4.86937691 3.79622798 -3.80187784 3.21414706 -1 2 C-0.67 1.34 -0.34 0.68 0 0 Z " fill="#EBFCFE" transform="translate(34,31)"/>
<path d="M0 0 C2.60924787 1.00861682 3.79748847 1.66498092 5.265625 4.09375 C5.59046875 4.8878125 5.9153125 5.681875 6.25 6.5 C6.75273437 7.69109375 6.75273437 7.69109375 7.265625 8.90625 C8 11 8 11 8 13 C8.99 13.33 9.98 13.66 11 14 C10.67 14.99 10.34 15.98 10 17 C1.3690205 6.62642369 1.3690205 6.62642369 -1 1 C-0.67 0.67 -0.34 0.34 0 0 Z " fill="#3179B1" transform="translate(17,175)"/>
<path d="M0 0 C1.5625 1.125 1.5625 1.125 3 3 C2.6875 6.1875 2.6875 6.1875 2 9 C1.34 9 0.68 9 0 9 C-0.7425 10.2375 -0.7425 10.2375 -1.5 11.5 C-2.2425 12.7375 -2.2425 12.7375 -3 14 C-3.66 14 -4.32 14 -5 14 C-3.45730076 9.27934033 -1.92205381 4.58335908 0 0 Z " fill="#DBF6FB" transform="translate(226,158)"/>
<path d="M0 0 C2.66666667 1.33333333 5.33333333 2.66666667 8 4 C8.66 3.34 9.32 2.68 10 2 C10.20625 3.051875 10.4125 4.10375 10.625 5.1875 C11.85689805 9.64407236 14.31781963 11.35843582 18 14 C17.67 14.66 17.34 15.32 17 16 C14.32926351 13.67129243 11.66424199 11.33613337 9 9 C7.74509766 7.90558594 7.74509766 7.90558594 6.46484375 6.7890625 C5.65144531 6.07492188 4.83804688 5.36078125 4 4.625 C3.236875 3.95726563 2.47375 3.28953125 1.6875 2.6015625 C1.130625 2.07304688 0.57375 1.54453125 0 1 C0 0.67 0 0.34 0 0 Z " fill="#2D81BB" transform="translate(133,70)"/>
<path d="M0 0 C0.66 0.33 1.32 0.66 2 1 C-3.23514227 7.24259233 -8.67672382 12.85314729 -15 18 C-15.66 17.67 -16.32 17.34 -17 17 C-15.37660195 15.29115995 -13.70680947 13.62553283 -12 12 C-11.34 12 -10.68 12 -10 12 C-9.773125 11.4225 -9.54625 10.845 -9.3125 10.25 C-7.66511725 7.42591529 -5.56545162 6.0023037 -3 4 C-1.23676495 1.87396815 -1.23676495 1.87396815 0 0 Z " fill="#1D81CC" transform="translate(131,212)"/>
<path d="M0 0 C2.46800047 1.15173355 4.04783565 2.04783565 6 4 C5.625 6.125 5.625 6.125 5 8 C-0.66153846 6.52307692 -0.66153846 6.52307692 -2.375 3.875 C-2.58125 3.25625 -2.7875 2.6375 -3 2 C-2.01 1.34 -1.02 0.68 0 0 Z " fill="#EFFBFB" transform="translate(122,62)"/>
<path d="M0 0 C0.66 0 1.32 0 2 0 C0.35433477 5.68502535 -2.29032784 10.76681636 -5 16 C-5.33 16 -5.66 16 -6 16 C-6.33 13.36 -6.66 10.72 -7 8 C-6.01 8 -5.02 8 -4 8 C-3.34 6.02 -2.68 4.04 -2 2 C-1.34 2 -0.68 2 0 2 C0 1.34 0 0.68 0 0 Z " fill="#DDF6FC" transform="translate(14,57)"/>
<path d="M0 0 C7.43795752 3.0428008 12.93740132 11.28788045 17 18 C16.67 18.66 16.34 19.32 16 20 C13.60284934 17.84256441 11.98822903 15.45131842 10.2421875 12.7578125 C5.89844398 6.51766049 5.89844398 6.51766049 0 2 C0 1.34 0 0.68 0 0 Z " fill="#3280B8" transform="translate(197,33)"/>
<path d="M0 0 C1 3 1 3 0.375 5 C-1 7 -1 7 -3.5625 8.5 C-6.16513821 9.75667017 -6.16513821 9.75667017 -6.8125 12.1875 C-6.9053125 13.0846875 -6.9053125 13.0846875 -7 14 C-7.66 14 -8.32 14 -9 14 C-9.33 12.35 -9.66 10.7 -10 9 C-9.44570312 8.51789063 -8.89140625 8.03578125 -8.3203125 7.5390625 C-7.59585938 6.90742187 -6.87140625 6.27578125 -6.125 5.625 C-5.40570313 4.99851562 -4.68640625 4.37203125 -3.9453125 3.7265625 C-2.5923402 2.52573166 -1.2791655 1.2791655 0 0 Z " fill="#F1F6F6" transform="translate(87,95)"/>
<path d="M0 0 C0.66 1.32 1.32 2.64 2 4 C-2.455 7.96 -2.455 7.96 -7 12 C-7.66 11.67 -8.32 11.34 -9 11 C-8.46324097 7.14896699 -6.88399077 5.68202413 -3.9375 3.25 C-3.20402344 2.63640625 -2.47054687 2.0228125 -1.71484375 1.390625 C-1.14894531 0.93171875 -0.58304688 0.4728125 0 0 Z " fill="#1D4469" transform="translate(91,87)"/>
<path d="M0 0 C4.18423892 3.50897269 8.19588166 7.08060535 12 11 C11.01 11.495 11.01 11.495 10 12 C9.22076172 11.22462891 9.22076172 11.22462891 8.42578125 10.43359375 C7.72839844 9.77488281 7.03101563 9.11617187 6.3125 8.4375 C5.62800781 7.77621094 4.94351563 7.11492187 4.23828125 6.43359375 C2.04992295 4.70435545 2.04992295 4.70435545 -0.76953125 5.28515625 C-1.50558594 5.52105469 -2.24164063 5.75695312 -3 6 C-3.66 5.01 -4.32 4.02 -5 3 C-4.01 2.67 -3.02 2.34 -2 2 C-1.67 2.33 -1.34 2.66 -1 3 C-0.67 2.01 -0.34 1.02 0 0 Z " fill="#D9F1F8" transform="translate(128,66)"/>
<path d="M0 0 C0.33 0.99 0.66 1.98 1 3 C-2.33128363 8.03830785 -7.47782852 13.85767411 -13.3125 15.75 C-14.1478125 15.87375 -14.1478125 15.87375 -15 16 C-14.34 15.34 -13.68 14.68 -13 14 C-12.55011719 13.54882812 -12.10023438 13.09765625 -11.63671875 12.6328125 C-10.4151925 11.41420159 -9.1876432 10.20162257 -7.95703125 8.9921875 C-7.24933594 8.29351562 -6.54164063 7.59484375 -5.8125 6.875 C-5.13832031 6.21242187 -4.46414062 5.54984375 -3.76953125 4.8671875 C-1.82446642 2.92056683 -1.82446642 2.92056683 0 0 Z " fill="#D4F4FB" transform="translate(206,192)"/>
<path d="M0 0 C1 2 1 2 1 5 C1.66 5 2.32 5 3 5 C3.33 4.34 3.66 3.68 4 3 C4 3.99 4 4.98 4 6 C2 8 2 8 -0.1640625 8.1953125 C-1.38222656 8.16050781 -1.38222656 8.16050781 -2.625 8.125 C-3.44226562 8.10695313 -4.25953125 8.08890625 -5.1015625 8.0703125 C-5.72804687 8.04710938 -6.35453125 8.02390625 -7 8 C-6.02133662 6.85373678 -5.04205413 5.70800212 -4.0625 4.5625 C-3.51722656 3.92441406 -2.97195312 3.28632812 -2.41015625 2.62890625 C-1.63204305 1.73008851 -0.84063472 0.84063472 0 0 Z " fill="#CAEBF9" transform="translate(62,105)"/>
<path d="M0 0 C0.99 0 1.98 0 3 0 C3 0.99 3 1.98 3 3 C4.98 2.67 6.96 2.34 9 2 C9 3.32 9 4.64 9 6 C8.01 6.495 8.01 6.495 7 7 C6.01 8.485 6.01 8.485 5 10 C4.16121545 8.71186658 3.32913217 7.41936744 2.5 6.125 C2.0359375 5.40570313 1.571875 4.68640625 1.09375 3.9453125 C0 2 0 2 0 0 Z " fill="#E1F5FC" transform="translate(213,49)"/>
<path d="M0 0 C8.55 3.325 8.55 3.325 11 7 C10.34 7 9.68 7 9 7 C9 10.96 9 14.92 9 19 C8.67 19 8.34 19 8 19 C8.00902344 18.20335938 8.01804688 17.40671875 8.02734375 16.5859375 C8.01088698 10.34086257 8.01088698 10.34086257 5.375 4.90234375 C3.64054702 3.47911318 1.8697592 2.23511509 0 1 C0 0.67 0 0.34 0 0 Z " fill="#194162" transform="translate(158,105)"/>
<path d="M0 0 C0.33 0.99 0.66 1.98 1 3 C0.02727325 4.35335895 -0.9739266 5.68662604 -2 7 C-2 7.99 -2 8.98 -2 10 C-1.34 10.66 -0.68 11.32 0 12 C-0.99 12 -1.98 12 -3 12 C-5.00309329 12.31421071 -7.00371336 12.6451046 -9 13 C-8.06398754 11.58235006 -7.1261208 10.16592432 -6.1875 8.75 C-5.66542969 7.96109375 -5.14335937 7.1721875 -4.60546875 6.359375 C-3.12865878 4.18907519 -1.59310127 2.08586232 0 0 Z " fill="#DBF6FB" transform="translate(216,179)"/>
<path d="M0 0 C1.32 0.33 2.64 0.66 4 1 C3.38125 1.7425 2.7625 2.485 2.125 3.25 C0.00268086 5.81368029 0.00268086 5.81368029 -1.125 8.25 C-2 10 -2 10 -4 11 C-4.66 10.67 -5.32 10.34 -6 10 C-4.34832443 6.4213696 -2.21713508 3.25179812 0 0 Z " fill="#F7FCFA" transform="translate(83,87)"/>
<path d="M0 0 C-1.375 1.5 -1.375 1.5 -3 3 C-3.66 3 -4.32 3 -5 3 C-5.2475 3.61875 -5.495 4.2375 -5.75 4.875 C-7.20628639 7.35068687 -8.37812506 7.95125002 -11 9 C-10.505 7.6078125 -10.505 7.6078125 -10 6.1875 C-8.85032996 3.07970709 -8.85032996 3.07970709 -9 0 C-2.25 -1.125 -2.25 -1.125 0 0 Z " fill="#0C5D99" transform="translate(153,192)"/>
<path d="M0 0 C0.66 0.33 1.32 0.66 2 1 C1.67 1.66 1.34 2.32 1 3 C0.34 2.67 -0.32 2.34 -1 2 C-1 2.99 -1 3.98 -1 5 C-4.33333333 8 -4.33333333 8 -7 8 C-7.061875 8.61875 -7.12375 9.2375 -7.1875 9.875 C-8 12 -8 12 -10.5625 13.25 C-11.366875 13.4975 -12.17125 13.745 -13 14 C-11.625 11.5 -11.625 11.5 -10 9 C-9.34 9 -8.68 9 -8 9 C-8 8.34 -8 7.68 -8 7 C-6.36395804 5.62926214 -4.69321939 4.29944744 -3 3 C-1.9826127 2.01769502 -0.97403883 1.02530403 0 0 Z " fill="#2184CD" transform="translate(150,194)"/>
<path d="M0 0 C3.3 0 6.6 0 10 0 C7.66666667 2.33333333 5.33333333 4.66666667 3 7 C1.79371992 4.66785852 0.8345262 2.50357861 0 0 Z " fill="#135789" transform="translate(54,113)"/>
<path d="M0 0 C0.66 0.33 1.32 0.66 2 1 C0.61068357 2.44379943 -0.78676578 3.87977512 -2.1875 5.3125 C-2.96480469 6.11300781 -3.74210937 6.91351563 -4.54296875 7.73828125 C-6.90305695 9.91076308 -9.19647888 11.46130013 -12 13 C-12 12.01 -12 11.02 -12 10 C-10.68 9.67 -9.36 9.34 -8 9 C-7.67 7.35 -7.34 5.7 -7 4 C-6.401875 3.896875 -5.80375 3.79375 -5.1875 3.6875 C-2.71756736 2.91123545 -1.67748765 1.92911079 0 0 Z " fill="#2477B4" transform="translate(80,87)"/>
<path d="M0 0 C4.41889613 1.35021826 6.34345343 3.26115668 9 7 C6.36 7.66 3.72 8.32 1 9 C1.33 7.02 1.66 5.04 2 3 C1.34 2.67 0.68 2.34 0 2 C0 1.34 0 0.68 0 0 Z " fill="#2885C8" transform="translate(184,22)"/>
<path d="M0 0 C8.27586207 0.68965517 8.27586207 0.68965517 12 4 C12.99 4.33 13.98 4.66 15 5 C14.67 5.99 14.34 6.98 14 8 C9.38 5.69 4.76 3.38 0 1 C0 0.67 0 0.34 0 0 Z " fill="#D4F3FA" transform="translate(161,8)"/>
<path d="M0 0 C1.65 0.33 3.3 0.66 5 1 C5 2.32 5 3.64 5 5 C4.34 5 3.68 5 3 5 C3 5.66 3 6.32 3 7 C1.73392393 7.53229326 0.46189588 8.05044544 -0.8125 8.5625 C-1.52019531 8.85253906 -2.22789062 9.14257812 -2.95703125 9.44140625 C-5 10 -5 10 -8 9 C-3.05 7.515 -3.05 7.515 2 6 C1.34 5.01 0.68 4.02 0 3 C0 2.01 0 1.02 0 0 Z " fill="#1E7DC0" transform="translate(160,218)"/>
<path d="M0 0 C-2.97 2.64 -5.94 5.28 -9 8 C-9.99 7.67 -10.98 7.34 -12 7 C-12 6.34 -12 5.68 -12 5 C-10.68 4.67 -9.36 4.34 -8 4 C-8 3.34 -8 2.68 -8 2 C-3.61016949 -1.20338983 -3.61016949 -1.20338983 0 0 Z " fill="#DBF2FB" transform="translate(48,23)"/>
<path d="M0 0 C1.51400391 0.01740234 1.51400391 0.01740234 3.05859375 0.03515625 C4.07050781 0.04417969 5.08242187 0.05320313 6.125 0.0625 C7.29869141 0.07990234 7.29869141 0.07990234 8.49609375 0.09765625 C5.07061876 2.38130624 1.73953238 3.23166332 -2.19140625 4.22265625 C-2.89330078 4.40441406 -3.59519531 4.58617187 -4.31835938 4.7734375 C-6.04556893 5.21992704 -7.77457081 5.65947285 -9.50390625 6.09765625 C-9.50390625 5.10765625 -9.50390625 4.11765625 -9.50390625 3.09765625 C-8.04984375 2.63359375 -8.04984375 2.63359375 -6.56640625 2.16015625 C-0.38314529 0.01494326 -0.38314529 0.01494326 0 0 Z " fill="#D6F4FC" transform="translate(84.50390625,1.90234375)"/>
<path d="M0 0 C0.66 1.32 1.32 2.64 2 4 C1.01 4.33 0.02 4.66 -1 5 C-2.39712274 6.95597184 -3.73779907 8.95436401 -5 11 C-5.33 10.34 -5.66 9.68 -6 9 C-6.66 8.67 -7.32 8.34 -8 8 C-6.37660195 6.29115995 -4.70680947 4.62553283 -3 3 C-2.34 3 -1.68 3 -1 3 C-0.67 2.01 -0.34 1.02 0 0 Z " fill="#237FC3" transform="translate(178,113)"/>
<path d="M0 0 C1.33897583 0.95043374 2.67105427 1.91059147 4 2.875 C5.11375 3.67550781 5.11375 3.67550781 6.25 4.4921875 C6.8275 4.98976563 7.405 5.48734375 8 6 C8 6.66 8 7.32 8 8 C5.03 8 2.06 8 -1 8 C-1.33 7.34 -1.66 6.68 -2 6 C0.97 6.495 0.97 6.495 4 7 C4 6.34 4 5.68 4 5 C2.68 4.67 1.36 4.34 0 4 C0 2.68 0 1.36 0 0 Z " fill="#BCE5F5" transform="translate(171,105)"/>
<path d="M0 0 C1.1055189 0.93590504 2.20935453 1.87379858 3.3125 2.8125 C3.92738281 3.33457031 4.54226562 3.85664062 5.17578125 4.39453125 C6.85424679 5.87172469 8.43882034 7.40039131 10 9 C9.401875 8.835 8.80375 8.67 8.1875 8.5 C5.88655664 7.8885876 5.88655664 7.8885876 3 8 C2.01 8 1.02 8 0 8 C0.2784375 7.13375 0.2784375 7.13375 0.5625 6.25 C1.04372783 3.77511403 0.67787733 2.39014524 0 0 Z " fill="#EAF2F4" transform="translate(146,95)"/>
<path d="M0 0 C1.32 0 2.64 0 4 0 C4 2 4 2 2.35546875 3.69140625 C1.64003906 4.30886719 0.92460938 4.92632812 0.1875 5.5625 C-0.87404297 6.49255859 -0.87404297 6.49255859 -1.95703125 7.44140625 C-4 9 -4 9 -7 10 C-7 9.01 -7 8.02 -7 7 C-6.34 7 -5.68 7 -5 7 C-5 6.34 -5 5.68 -5 5 C-4.360625 4.731875 -3.72125 4.46375 -3.0625 4.1875 C-0.66868314 3.11332248 -0.66868314 3.11332248 0 0 Z " fill="#2579B5" transform="translate(90,76)"/>
<path d="M0 0 C0.66 0.33 1.32 0.66 2 1 C0.54782324 2.50596108 -0.91192861 4.00462104 -2.375 5.5 C-3.18710938 6.3353125 -3.99921875 7.170625 -4.8359375 8.03125 C-7 10 -7 10 -9 10 C-9 8.68 -9 7.36 -9 6 C-8.01 6 -7.02 6 -6 6 C-6 5.34 -6 4.68 -6 4 C-5.01 4 -4.02 4 -3 4 C-3 3.34 -3 2.68 -3 2 C-2.01 1.34 -1.02 0.68 0 0 Z " fill="#2A79B2" transform="translate(112,58)"/>
<path d="M0 0 C0 0.99 0 1.98 0 3 C-1.828125 4.46484375 -1.828125 4.46484375 -4.25 5.9375 C-7.56532927 8.03111738 -10.38160035 10.04006996 -13 13 C-13.66 12.67 -14.32 12.34 -15 12 C-13.44233138 10.55726615 -11.87864043 9.12103292 -10.3125 7.6875 C-9.44238281 6.88699219 -8.57226562 6.08648437 -7.67578125 5.26171875 C-5.21829688 3.18451663 -2.80496684 1.56168424 0 0 Z " fill="#3481B5" transform="translate(53,19)"/>
<path d="M0 0 C0.33 0 0.66 0 1 0 C1.36590746 1.72672034 1.71722195 3.45653655 2.0625 5.1875 C2.25972656 6.15042969 2.45695313 7.11335937 2.66015625 8.10546875 C3.00423947 11.03610862 2.74164697 13.16307068 2 16 C1.34 16 0.68 16 0 16 C0 10.72 0 5.44 0 0 Z " fill="#FDF9F0" transform="translate(0,140)"/>
<path d="M0 0 C0.99 0.33 1.98 0.66 3 1 C3 2.65 3 4.3 3 6 C0.03 5.505 0.03 5.505 -3 5 C-2.625 3.0625 -2.625 3.0625 -2 1 C-1.34 0.67 -0.68 0.34 0 0 Z " fill="#11649E" transform="translate(45,122)"/>
<path d="M0 0 C1.98 0 3.96 0 6 0 C5.24172908 1.17487036 4.46792245 2.33972592 3.6875 3.5 C3.25824219 4.1496875 2.82898437 4.799375 2.38671875 5.46875 C1.92910156 5.9740625 1.47148438 6.479375 1 7 C0.01 7 -0.98 7 -2 7 C-2 6.01 -2 5.02 -2 4 C-1.34 4 -0.68 4 0 4 C0 2.68 0 1.36 0 0 Z " fill="#1F81C3" transform="translate(53,108)"/>
<path d="M0 0 C1.32 0.33 2.64 0.66 4 1 C1.19195732 3.96404505 -1.18315774 6.44499019 -5 8 C-5 6.68 -5 5.36 -5 4 C-4.0409375 3.8453125 -4.0409375 3.8453125 -3.0625 3.6875 C-2.381875 3.460625 -1.70125 3.23375 -1 3 C-0.67 2.01 -0.34 1.02 0 0 Z " fill="#247FC0" transform="translate(192,202)"/>
<path d="M0 0 C0.33 0 0.66 0 1 0 C2.27170568 6.474138 1.68902652 9.97658059 -1 16 C-1.33 16 -1.66 16 -2 16 C-1.85764543 14.27054347 -1.71095618 12.54144346 -1.5625 10.8125 C-1.48128906 9.84957031 -1.40007812 8.88664062 -1.31640625 7.89453125 C-1.02333849 5.21350398 -0.57296246 2.6337014 0 0 Z " fill="#458DC1" transform="translate(3,88)"/>
<path d="M0 0 C1.32 1.32 2.64 2.64 4 4 C3.34 5.65 2.68 7.3 2 9 C0.02 7.68 -1.96 6.36 -4 5 C-3.01 4.67 -2.02 4.34 -1 4 C-0.67 4.33 -0.34 4.66 0 5 C0 3.35 0 1.7 0 0 Z " fill="#D8EFF5" transform="translate(140,77)"/>
<path d="M0 0 C2.475 0.99 2.475 0.99 5 2 C5 2.99 5 3.98 5 5 C3.02 5 1.04 5 -1 5 C-1 1 -1 1 0 0 Z " fill="#127EC6" transform="translate(40,198)"/>
<path d="M0 0 C0.28875 0.598125 0.5775 1.19625 0.875 1.8125 C2.04742026 4.19327792 2.04742026 4.19327792 4 7 C3.625 9.6875 3.625 9.6875 3 12 C0.71046511 9.71046511 0.47586642 8.54484795 -0.1875 5.4375 C-0.36667969 4.63183594 -0.54585938 3.82617188 -0.73046875 2.99609375 C-0.81941406 2.33738281 -0.90835937 1.67867187 -1 1 C-0.67 0.67 -0.34 0.34 0 0 Z " fill="#3987C1" transform="translate(5,146)"/>
<path d="M0 0 C0.78375 0.04125 1.5675 0.0825 2.375 0.125 C2.045 1.775 1.715 3.425 1.375 5.125 C0.385 5.455 -0.605 5.785 -1.625 6.125 C-2.615 4.805 -3.605 3.485 -4.625 2.125 C-2.625 0.125 -2.625 0.125 0 0 Z " fill="#DFEBF0" transform="translate(160.625,96.875)"/>
<path d="M0 0 C1.29608947 0.93137592 2.58671632 1.8703566 3.875 2.8125 C4.59429687 3.33457031 5.31359375 3.85664062 6.0546875 4.39453125 C8 6 8 6 10 9 C9.01 9 8.02 9 7 9 C6.67 8.01 6.34 7.02 6 6 C5.175 5.690625 4.35 5.38125 3.5 5.0625 C2.675 4.711875 1.85 4.36125 1 4 C0.34375 1.93359375 0.34375 1.93359375 0 0 Z " fill="#DAF4FC" transform="translate(144,81)"/>
<path d="M0 0 C0.66 0.33 1.32 0.66 2 1 C-1.07881696 4.87051275 -4.00073014 8.02911382 -8 11 C-8.33 10.01 -8.66 9.02 -9 8 C-8.43410156 7.50628906 -7.86820312 7.01257813 -7.28515625 6.50390625 C-6.55167969 5.86324219 -5.81820312 5.22257812 -5.0625 4.5625 C-4.33160156 3.92441406 -3.60070312 3.28632812 -2.84765625 2.62890625 C-1.87860647 1.77458541 -0.91348825 0.91348825 0 0 Z " fill="#CFF2FB" transform="translate(103,68)"/>
<path d="M0 0 C-1 3 -1 3 -3 4 C-4.70702735 4.06996014 -6.41668003 4.08440154 -8.125 4.0625 C-9.03507813 4.05347656 -9.94515625 4.04445312 -10.8828125 4.03515625 C-11.58148438 4.02355469 -12.28015625 4.01195312 -13 4 C-13 3.67 -13 3.34 -13 3 C-11.2092015 2.49689942 -9.41733089 1.99761372 -7.625 1.5 C-6.62726563 1.2215625 -5.62953125 0.943125 -4.6015625 0.65625 C-2 0 -2 0 0 0 Z " fill="#CBF0FB" transform="translate(154,228)"/>
<path d="M0 0 C0.66 0.33 1.32 0.66 2 1 C-2.67460782 5.55774263 -5.48277089 6.66290194 -12 7 C-9.5129261 5.34195074 -7.02682498 3.80125522 -4.4375 2.3125 C-3.65246094 1.85488281 -2.86742187 1.39726562 -2.05859375 0.92578125 C-1.37925781 0.62027344 -0.69992188 0.31476563 0 0 Z " fill="#CFF6FD" transform="translate(175,218)"/>
<path d="M0 0 C6.27 0 12.54 0 19 0 C19 0.99 19 1.98 19 3 C18.01 2.67 17.02 2.34 16 2 C13.26710707 1.77202438 10.54957796 1.58331813 7.8125 1.4375 C7.06291016 1.39431641 6.31332031 1.35113281 5.54101562 1.30664062 C3.69421625 1.20077315 1.84713166 1.0999024 0 1 C0 0.67 0 0.34 0 0 Z " fill="#1967A2" transform="translate(80,180)"/>
<path d="M0 0 C0.99 0.33 1.98 0.66 3 1 C5.39254576 1.22560676 7.78928123 1.40848595 10.1875 1.5625 C12.09595703 1.68818359 12.09595703 1.68818359 14.04296875 1.81640625 C15.01878906 1.87699219 15.99460937 1.93757812 17 2 C17 2.33 17 2.66 17 3 C11.06 3.33 5.12 3.66 -1 4 C-0.67 2.68 -0.34 1.36 0 0 Z " fill="#1A486B" transform="translate(107,131)"/>
<path d="M0 0 C0.66 0.66 1.32 1.32 2 2 C1.34 3.65 0.68 5.3 0 7 C-0.99 6.34 -1.98 5.68 -3 5 C-2.67 3.68 -2.34 2.36 -2 1 C-1.34 1.33 -0.68 1.66 0 2 C0 1.34 0 0.68 0 0 Z M-5 6 C-4.01 6.33 -3.02 6.66 -2 7 C-3.98 7.99 -3.98 7.99 -6 9 C-5.67 8.01 -5.34 7.02 -5 6 Z " fill="#1F86CD" transform="translate(182,111)"/>
<path d="M0 0 C1.65 0 3.3 0 5 0 C5.33 1.32 5.66 2.64 6 4 C2.25 5.125 2.25 5.125 0 4 C0 2.68 0 1.36 0 0 Z " fill="#2483D2" transform="translate(55,99)"/>
<path d="M0 0 C0.75 1.75 0.75 1.75 1 4 C-0.9375 6.25 -0.9375 6.25 -3 8 C-3.66 7.67 -4.32 7.34 -5 7 C-3.70700306 4.11562221 -2.34058637 2.12780579 0 0 Z " fill="#2A4D6B" transform="translate(113,67)"/>
<path d="M0 0 C1.65 0 3.3 0 5 0 C4.67 1.32 4.34 2.64 4 4 C2.02 4.33 0.04 4.66 -2 5 C-2 4.34 -2 3.68 -2 3 C-1.34 3 -0.68 3 0 3 C0 2.01 0 1.02 0 0 Z " fill="#F7FAF9" transform="translate(112,61)"/>
<path d="M0 0 C1.8871875 0.0309375 1.8871875 0.0309375 3.8125 0.0625 C3.4825 0.7225 3.1525 1.3825 2.8125 2.0625 C0.74609375 2.4765625 0.74609375 2.4765625 -1.75 2.6875 C-2.57628906 2.76226562 -3.40257813 2.83703125 -4.25390625 2.9140625 C-5.21103516 2.98753906 -5.21103516 2.98753906 -6.1875 3.0625 C-6.5175 2.4025 -6.8475 1.7425 -7.1875 1.0625 C-4.43671116 0.14557039 -2.82801087 -0.04636083 0 0 Z " fill="#3789BE" transform="translate(102.1875,0.9375)"/>
<path d="M0 0 C0.99 0.33 1.98 0.66 3 1 C1.70700306 3.88437779 0.34058637 5.87219421 -2 8 C-2.33 7.01 -2.66 6.02 -3 5 C-3.66 4.67 -4.32 4.34 -5 4 C-4.34 3.67 -3.68 3.34 -3 3 C-2.01 3.33 -1.02 3.66 0 4 C0 2.68 0 1.36 0 0 Z " fill="#247EC0" transform="translate(210,182)"/>
<path d="M0 0 C0 1.65 0 3.3 0 5 C-1.32 5 -2.64 5 -4 5 C-4 5.66 -4 6.32 -4 7 C-5.98 7.99 -5.98 7.99 -8 9 C-6.78641212 6.02119338 -3.58154637 0 0 0 Z " fill="#E5F6FC" transform="translate(77,105)"/>
<path d="M0 0 C1.32 0 2.64 0 4 0 C4 1.65 4 3.3 4 5 C2.68 5.33 1.36 5.66 0 6 C0 4.02 0 2.04 0 0 Z " fill="#128BE2" transform="translate(19,55)"/>
<path d="M0 0 C0.33 0 0.66 0 1 0 C1 2.31 1 4.62 1 7 C-0.32 7.33 -1.64 7.66 -3 8 C-2.45276317 4.62537285 -1.9451 2.91765 0 0 Z " fill="#2986C3" transform="translate(23,47)"/>
<path d="M0 0 C1.32 0.33 2.64 0.66 4 1 C4 1.66 4 2.32 4 3 C3.34 3 2.68 3 2 3 C1.34 4.32 0.68 5.64 0 7 C-0.66 6.67 -1.32 6.34 -2 6 C-1.34 4.02 -0.68 2.04 0 0 Z " fill="#0B62A1" transform="translate(138,200)"/>
<path d="M0 0 C1.12894876 0.93274109 2.25300876 1.87140122 3.375 2.8125 C4.00148438 3.33457031 4.62796875 3.85664063 5.2734375 4.39453125 C7 6 7 6 9 9 C7.68 8.67 6.36 8.34 5 8 C5 7.34 5 6.68 5 6 C4.34 6 3.68 6 3 6 C3 5.34 3 4.68 3 4 C2.01 3.67 1.02 3.34 0 3 C0 2.01 0 1.02 0 0 Z " fill="#E2FBFD" transform="translate(31,197)"/>
<path d="M0 0 C1 3 1 3 0 6 C-2.31 6.33 -4.62 6.66 -7 7 C-4.66666667 4.66666667 -2.33333333 2.33333333 0 0 Z " fill="#E4F1F6" transform="translate(102,82)"/>
<path d="M0 0 C0.99 0.66 1.98 1.32 3 2 C1.35 3.65 -0.3 5.3 -2 7 C-2.66 6.67 -3.32 6.34 -4 6 C-4 5.01 -4 4.02 -4 3 C-2 1.3125 -2 1.3125 0 0 Z " fill="#133959" transform="translate(107,73)"/>
<path d="M0 0 C1.32 0.33 2.64 0.66 4 1 C4 2.32 4 3.64 4 5 C2.68 5 1.36 5 0 5 C-0.33 5.99 -0.66 6.98 -1 8 C-1 4.88742431 -0.82638376 2.89234315 0 0 Z " fill="#178DE2" transform="translate(90,71)"/>
<path d="M0 0 C0 2.64 0 5.28 0 8 C-0.99 7.67 -1.98 7.34 -3 7 C-3.33 5.35 -3.66 3.7 -4 2 C-1 0 -1 0 0 0 Z " fill="#158BE4" transform="translate(219,62)"/>
<path d="M0 0 C3.96 0.33 7.92 0.66 12 1 C12 1.99 12 2.98 12 4 C6.06 2.515 6.06 2.515 0 1 C0 0.67 0 0.34 0 0 Z " fill="#CBEEFA" transform="translate(145,3)"/>
<path d="M0 0 C0 0.99 0 1.98 0 3 C-2.64 3 -5.28 3 -8 3 C-8 2.01 -8 1.02 -8 0 C-4.94736336 -0.98120464 -3.05263664 -0.98120464 0 0 Z " fill="#1B7ABC" transform="translate(89,226)"/>
<path d="M0 0 C1.65 0 3.3 0 5 0 C4.67 1.32 4.34 2.64 4 4 C2.35 4.33 0.7 4.66 -1 5 C-0.67 3.35 -0.34 1.7 0 0 Z " fill="#0C639E" transform="translate(51,115)"/>
<path d="M0 0 C1.32 0.33 2.64 0.66 4 1 C3.67 1.99 3.34 2.98 3 4 C0.4375 5.1875 0.4375 5.1875 -2 6 C-1.34 4.02 -0.68 2.04 0 0 Z " fill="#F9FAF6" transform="translate(63,105)"/>
<path d="M0 0 C0.33 0.99 0.66 1.98 1 3 C1.99 3.33 2.98 3.66 4 4 C4.6875 6.0625 4.6875 6.0625 5 8 C2.69 7.01 0.38 6.02 -2 5 C-1.34 3.35 -0.68 1.7 0 0 Z " fill="#F7FCF8" transform="translate(162,98)"/>
<path d="M0 0 C0 4.38968456 -2.12805101 5.76905739 -5 9 C-5.99 8.67 -6.98 8.34 -8 8 C-5.36 5.36 -2.72 2.72 0 0 Z " fill="#D1F5FC" transform="translate(82,87)"/>
<path d="M0 0 C0.66 0.66 1.32 1.32 2 2 C-0.01822917 1.96744792 -2.03645833 1.93489583 -4.0546875 1.90234375 C-6.08185404 1.87350758 -6.08185404 1.87350758 -8 3 C-8.33 2.01 -8.66 1.02 -9 0 C-5.47955362 -1.17348213 -3.57539179 -0.83679382 0 0 Z " fill="#2784C8" transform="translate(148,4)"/>
<path d="M0 0 C0.33 0.66 0.66 1.32 1 2 C1.66 2 2.32 2 3 2 C3.66 3.65 4.32 5.3 5 7 C4.01 7 3.02 7 2 7 C2 6.34 2 5.68 2 5 C1.01 4.67 0.02 4.34 -1 4 C-0.67 2.68 -0.34 1.36 0 0 Z " fill="#FAF8ED" transform="translate(33,201)"/>
<path d="M0 0 C4.24822374 0.47202486 6.19989709 2.96655518 9 6 C8.67 6.99 8.34 7.98 8 9 C6.66368764 7.6905332 5.33102075 6.37734515 4 5.0625 C3.2575 4.33160156 2.515 3.60070312 1.75 2.84765625 C0 1 0 1 0 0 Z " fill="#3783B4" transform="translate(151,86)"/>
<path d="M0 0 C0.33 0 0.66 0 1 0 C1 1.65 1 3.3 1 5 C-0.8125 5.6875 -0.8125 5.6875 -3 6 C-4.75 4.5625 -4.75 4.5625 -6 3 C-4.02 2.67 -2.04 2.34 0 2 C0 1.34 0 0.68 0 0 Z " fill="#F2F2EA" transform="translate(115,72)"/>
<path d="M0 0 C1.32 0.66 2.64 1.32 4 2 C3.67 3.65 3.34 5.3 3 7 C1.68 5.35 0.36 3.7 -1 2 C-0.67 1.34 -0.34 0.68 0 0 Z " fill="#FCF8EF" transform="translate(196,24)"/>
<path d="M0 0 C0.66 0.66 1.32 1.32 2 2 C1.34 3.32 0.68 4.64 0 6 C-1.32 5.34 -2.64 4.68 -4 4 C-2.68 2.68 -1.36 1.36 0 0 Z " fill="#275376" transform="translate(70,106)"/>
<path d="M0 0 C0.99 0.33 1.98 0.66 3 1 C1.68 2.65 0.36 4.3 -1 6 C-1.66 5.67 -2.32 5.34 -3 5 C-2.625 3.0625 -2.625 3.0625 -2 1 C-1.34 0.67 -0.68 0.34 0 0 Z " fill="#14446D" transform="translate(74,103)"/>
<path d="M0 0 C1 3 1 3 0.0625 5.1875 C-0.4634375 6.0846875 -0.4634375 6.0846875 -1 7 C-2.32 6.34 -3.64 5.68 -5 5 C-3.35 3.35 -1.7 1.7 0 0 Z " fill="#DDEFF7" transform="translate(87,95)"/>
<path d="M0 0 C0.33 0.99 0.66 1.98 1 3 C-0.98 4.32 -2.96 5.64 -5 7 C-5 6.01 -5 5.02 -5 4 C-2.5 1.8125 -2.5 1.8125 0 0 Z " fill="#D6F1F9" transform="translate(73,96)"/>
<path d="M0 0 C0.33 1.32 0.66 2.64 1 4 C0.34 4 -0.32 4 -1 4 C-1 4.66 -1 5.32 -1 6 C-2.65 6.33 -4.3 6.66 -6 7 C-4.02 4.69 -2.04 2.38 0 0 Z " fill="#418BC1" transform="translate(37,31)"/>
<path d="M0 0 C4.35535069 1.16142685 6.64619703 2.07699505 9 6 C8.67 6.66 8.34 7.32 8 8 C6.66372225 6.85760183 5.33104612 5.71098945 4 4.5625 C3.2575 3.92441406 2.515 3.28632813 1.75 2.62890625 C1.1725 2.09136719 0.595 1.55382812 0 1 C0 0.67 0 0.34 0 0 Z " fill="#D0F3FB" transform="translate(192,27)"/>
<path d="M0 0 C1.65 1.65 3.3 3.3 5 5 C4.01 5.33 3.02 5.66 2 6 C0 5 0 5 -0.6875 3 C-0.790625 2.34 -0.89375 1.68 -1 1 C-0.67 0.67 -0.34 0.34 0 0 Z " fill="#D7F0F8" transform="translate(26,191)"/>
<path d="M0 0 C1.32 0 2.64 0 4 0 C4.33 1.32 4.66 2.64 5 4 C3.02 4 1.04 4 -1 4 C-0.67 2.68 -0.34 1.36 0 0 Z " fill="#0C63A5" transform="translate(102,180)"/>
<path d="M0 0 C2.64465038 3.1254959 3.84414715 6.08788267 5 10 C3.0625 9.5 3.0625 9.5 1 8 C0.31209578 5.30341548 0.18053536 2.7982981 0 0 Z " fill="#DBF3FA" transform="translate(8,161)"/>
<path d="M0 0 C2.97 0.33 5.94 0.66 9 1 C8.67 1.99 8.34 2.98 8 4 C7.34 4 6.68 4 6 4 C6 3.34 6 2.68 6 2 C4.35 2 2.7 2 1 2 C0.67 2.66 0.34 3.32 0 4 C0 2.68 0 1.36 0 0 Z " fill="#074471" transform="translate(169,112)"/>
<path d="M0 0 C3 1 3 1 4 3 C4.99 3.33 5.98 3.66 7 4 C7 4.66 7 5.32 7 6 C4.03 5.505 4.03 5.505 1 5 C0.67 3.35 0.34 1.7 0 0 Z " fill="#F9FCFA" transform="translate(168,106)"/>
<path d="M0 0 C0.66 0.33 1.32 0.66 2 1 C1.34 2.32 0.68 3.64 0 5 C-0.99 5 -1.98 5 -3 5 C-3 4.01 -3 3.02 -3 2 C-2.01 1.34 -1.02 0.68 0 0 Z " fill="#ECF2EE" transform="translate(156,104)"/>
<path d="M0 0 C0.66 0 1.32 0 2 0 C2.66 1.65 3.32 3.3 4 5 C3.01 5.66 2.02 6.32 1 7 C0.67 6.01 0.34 5.02 0 4 C-0.66 3.34 -1.32 2.68 -2 2 C-1.34 1.34 -0.68 0.68 0 0 Z " fill="#ECFDFE" transform="translate(66,102)"/>
<path d="M0 0 C1.32 0 2.64 0 4 0 C3.67 0.99 3.34 1.98 3 3 C2.34 3 1.68 3 1 3 C0.67 3.99 0.34 4.98 0 6 C-0.66 5.01 -1.32 4.02 -2 3 C-1.34 2.01 -0.68 1.02 0 0 Z " fill="#2186CC" transform="translate(169,96)"/>
<path d="M0 0 C0.99 0 1.98 0 3 0 C3.33 1.32 3.66 2.64 4 4 C2.68 4 1.36 4 0 4 C0 2.68 0 1.36 0 0 Z " fill="#F4F6F5" transform="translate(154,94)"/>
<path d="M0 0 C1.98 0.495 1.98 0.495 4 1 C2.69593116 3.01920337 1.36176581 5.01924973 0 7 C-0.33 7 -0.66 7 -1 7 C-0.67 4.69 -0.34 2.38 0 0 Z " fill="#DBF4FA" transform="translate(17,50)"/>
<path d="M0 0 C2.31 0.33 4.62 0.66 7 1 C7.33 2.32 7.66 3.64 8 5 C4.62496331 3.8141763 2.35277269 2.72426311 0 0 Z " fill="#21709B" transform="translate(53,214)"/>
<path d="M0 0 C1.9375 0.6875 1.9375 0.6875 4 2 C4.75 4.625 4.75 4.625 5 7 C1.18461538 4.53846154 1.18461538 4.53846154 0.25 1.8125 C0.1675 1.214375 0.085 0.61625 0 0 Z " fill="#143E5B" transform="translate(133,80)"/>
<path d="M0 0 C1.65 1.65 3.3 3.3 5 5 C3.0625 5.5625 3.0625 5.5625 1 6 C0 5 0 5 -0.0625 2.4375 C-0.041875 1.633125 -0.02125 0.82875 0 0 Z " fill="#DEECF1" transform="translate(123,74)"/>
<path d="M0 0 C0.33 1.32 0.66 2.64 1 4 C1.99 4 2.98 4 4 4 C4 4.66 4 5.32 4 6 C2.68 6.33 1.36 6.66 0 7 C0 6.01 0 5.02 0 4 C-0.66 3.67 -1.32 3.34 -2 3 C-1.34 2.01 -0.68 1.02 0 0 Z " fill="#2187CF" transform="translate(18,57)"/>
<path d="M0 0 C0.99 0.33 1.98 0.66 3 1 C1.35 2.98 -0.3 4.96 -2 7 C-2.6875 5.1875 -2.6875 5.1875 -3 3 C-1.5625 1.25 -1.5625 1.25 0 0 Z " fill="#DAF4FC" transform="translate(26,40)"/>
<path d="M0 0 C1.65 0.99 3.3 1.98 5 3 C4.34 3.66 3.68 4.32 3 5 C1.68 5 0.36 5 -1 5 C-0.67 3.35 -0.34 1.7 0 0 Z " fill="#2687CE" transform="translate(193,29)"/>
<path d="M0 0 C5.75 1.75 5.75 1.75 8 4 C6.02 4 4.04 4 2 4 C1.34 2.68 0.68 1.36 0 0 Z " fill="#2C7FB9" transform="translate(163,10)"/>
</svg>
